<svg width="391.128125px" height="126.8px" xmlns="http://www.w3.org/2000/svg" viewBox="54.435937499999994 11.600000000000001 391.128125 126.8" style="background: rgba(0, 0, 0, 0);" preserveAspectRatio="xMidYMid"><defs><filter id="editing-extrude-glow"><feFlood flood-color="#333333" result="flood-1"></feFlood><feMorphology operator="erode" radius="1" in="SourceAlpha" result="erode"></feMorphology><feComposite operator="in" in="flood-1" in2="erode" result="comp1"></feComposite><feConvolveMatrix order="3,3" divisor="1" in="comp1" result="convolve" kernelMatrix="0 0 0 1 1 1 0 0 0"></feConvolveMatrix><feOffset dx="-3" dy="0" in="convolve" result="extrude"></feOffset><feComposite operator="in" in="flood-1" in2="extrude" result="comp-extrude"></feComposite><feFlood flood-color="#000000" result="flood-2"></feFlood><feComposite operator="in" in="flood-2" in2="SourceAlpha" result="comp2"></feComposite><feMorphology operator="dilate" radius="1" in="comp2" result="dilate"></feMorphology><feOffset dx="-4.5" dy="0" in="dilate" result="offset"></feOffset><feGaussianBlur in="offset" stdDeviation="5.8" result="blur"></feGaussianBlur><feComponentTransfer in="blur" result="shadow"><feFuncA type="linear" slope="0.8" intercept="-0.2"></feFuncA></feComponentTransfer><feMerge><feMergeNode in="shadow"></feMergeNode><feMergeNode in="comp-extrude"></feMergeNode><feMergeNode in="SourceGraphic"></feMergeNode></feMerge></filter></defs><g filter="url(#editing-extrude-glow)"><g transform="translate(113.32499265670776, 98.7450008392334)"><path d="M24.26-12.74L24.13-18.82L24.13-18.82Q24.13-20.29 22.34-20.42L22.34-20.42L17.79-20.42L17.79-20.42Q17.28-20.42 17.28-20.74L17.28-20.74L17.28-20.74Q17.66-22.59 18.62-23.71L18.62-23.71L18.62-23.71Q19.58-24.83 20.22-24.96L20.22-24.96L20.22-24.96Q22.02-25.22 26.11-25.22L26.11-25.22L26.11-25.22Q30.21-25.22 31.23-25.18L31.23-25.18L31.23-25.18Q32.26-25.15 32.51-24.96L32.51-24.96L32.51-24.96Q32.77-24.64 32.77-24.22L32.77-24.22L32.77-24.22Q32.77-23.81 32.54-18.91L32.54-18.91L32.54-18.91Q32.32-14.02 32.32-10.14L32.32-10.14L32.32-10.14Q32.32-6.27 32.58-5.28L32.58-5.28L32.58-5.28Q32.83-4.29 32.83-4.03L32.83-4.03L32.83-4.03Q32.83-3.01 31.04-1.82L31.04-1.82L31.04-1.82Q29.25-0.64 25.63 0.26L25.63 0.26L25.63 0.26Q22.02 1.15 17.66 1.15L17.66 1.15L17.66 1.15Q11.84 1.15 7.55-2.88L7.55-2.88L7.55-2.88Q4.22-6.08 2.98-9.86L2.98-9.86L2.98-9.86Q1.73-13.63 1.73-20.48L1.73-20.48L1.73-20.48Q1.73-45.89 20.35-45.89L20.35-45.89L20.35-45.89Q23.49-45.89 25.98-45.22L25.98-45.22L25.98-45.22Q28.48-44.54 30.37-42.59L30.37-42.59L30.37-42.59Q32.26-40.64 32.26-37.57L32.26-37.57L32.26-37.57Q32.26-35.97 31.62-34.30L31.62-34.30L31.62-34.30Q30.46-30.91 26.50-30.91L26.50-30.91L26.50-30.91Q24.32-30.91 23.20-32.03L23.20-32.03L23.20-32.03Q22.08-33.15 22.08-35.14L22.08-35.14L22.08-35.14Q22.08-35.90 22.91-36.10L22.91-36.10L22.91-36.10Q24.13-36.80 24.13-38.50L24.13-38.50L24.13-38.50Q24.13-40.19 22.85-41.12L22.85-41.12L22.85-41.12Q21.57-42.05 20.16-42.05L20.16-42.05L20.16-42.05Q17.09-42.05 14.98-39.84L14.98-39.84L14.98-39.84Q12.86-37.63 11.90-34.05L11.90-34.05L11.90-34.05Q10.30-27.65 10.30-20.99L10.30-20.99L10.30-20.99Q10.30-10.11 15.62-6.53L15.62-6.53L15.62-6.53Q17.60-5.12 19.78-5.12L19.78-5.12L19.78-5.12Q23.81-5.12 24.06-6.59L24.06-6.59L24.06-6.59Q24.26-8.58 24.26-12.74L24.26-12.74ZM57.66-19.20L57.66-19.20L57.54-11.01L57.54-11.01Q57.54-2.50 59.39-0.77L59.39-0.77L59.39-0.77Q59.65-0.51 59.65-0.19L59.65-0.19L59.65-0.19Q59.65 0.77 55.52 0.77L55.52 0.77L55.52 0.77Q51.39 0.77 51.14-1.66L51.14-1.66L51.14-1.66Q51.07-2.24 51.07-4.03L51.07-4.03L51.33-14.27L51.33-14.27Q51.33-14.72 50.82-14.72L50.82-14.72L50.82-14.72Q47.74-14.72 45.06-12.99L45.06-12.99L45.06-12.99Q42.37-11.26 42.37-8.58L42.37-8.58L42.37-8.58Q42.37-7.17 43.14-6.21L43.14-6.21L43.14-6.21Q43.90-5.25 45.02-5.25L45.02-5.25L45.02-5.25Q46.14-5.25 46.88-5.70L46.88-5.70L46.88-5.70Q47.62-6.14 47.74-6.21L47.74-6.21L47.74-6.21Q48.83-6.08 48.83-3.94L48.83-3.94L48.83-3.94Q48.83-1.79 46.85-0.48L46.85-0.48L46.85-0.48Q44.86 0.83 42.69 0.83L42.69 0.83L42.69 0.83Q40.51 0.83 38.94 0.06L38.94 0.06L38.94 0.06Q37.38-0.70 36.67-1.66L36.67-1.66L36.67-1.66Q35.97-2.62 35.52-3.84L35.52-3.84L35.52-3.84Q35.07-5.31 35.07-6.40L35.07-6.40L35.07-6.40Q35.07-10.88 37.89-13.57L37.89-13.57L37.89-13.57Q40.70-16.26 45.12-17.41L45.12-17.41L45.12-17.41Q50.94-18.56 51.20-19.52L51.20-19.52L51.20-19.52Q51.39-20.22 51.39-21.89L51.39-21.89L51.39-21.89Q51.39-25.28 47.94-25.28L47.94-25.28L47.94-25.28Q46.46-25.28 45.31-24.35L45.31-24.35L45.31-24.35Q44.16-23.42 44.16-22.02L44.16-22.02L44.54-20.48L44.54-20.48Q44.42-19.39 42.24-19.20L42.24-19.20L41.54-19.14L41.54-19.14Q39.62-19.14 38.50-20.10L38.50-20.10L38.50-20.10Q37.38-21.06 37.38-22.66L37.38-22.66L37.38-22.66Q37.38-23.68 38.05-24.93L38.05-24.93L38.05-24.93Q38.72-26.18 39.74-26.94L39.74-26.94L39.74-26.94Q40.77-27.71 42.91-28.32L42.91-28.32L42.91-28.32Q45.06-28.93 47.04-28.93L47.04-28.93L47.04-28.93Q49.02-28.93 50.11-28.80L50.11-28.80L50.11-28.80Q51.20-28.67 53.09-28.19L53.09-28.19L53.09-28.19Q54.98-27.71 56.22-26.37L56.22-26.37L56.22-26.37Q57.47-25.02 57.57-23.52L57.57-23.52L57.57-23.52Q57.66-22.02 57.66-19.20ZM81.41-22.02L81.09-17.15L81.34-14.91L81.34-14.91Q81.34-13.70 79.04-13.70L79.04-13.70L79.04-13.70Q74.37-13.70 74.37-17.22L74.37-17.22L74.37-17.22Q74.37-18.05 74.82-19.52L74.82-19.52L74.82-19.52Q75.26-20.99 75.26-22.08L75.26-22.08L75.26-22.08Q75.26-23.17 74.62-23.97L74.62-23.97L74.62-23.97Q73.98-24.77 72.77-24.77L72.77-24.77L72.77-24.77Q71.55-24.77 70.69-23.90L70.69-23.90L70.69-23.90Q69.82-23.04 69.63-22.14L69.63-22.14L69.38-21.25L69.38-21.25Q68.99-19.26 68.99-14.62L68.99-14.62L68.99-14.62Q68.99-9.98 69.12-7.33L69.12-7.33L69.12-7.33Q69.25-4.67 69.38-3.68L69.38-3.68L69.38-3.68Q69.50-2.69 69.50-2.50L69.50-2.50L69.50-2.50Q69.50-0.90 67.52 0.10L67.52 0.10L67.52 0.10Q65.54 1.09 63.55 1.09L63.55 1.09L63.55 1.09Q61.57 1.09 61.57 0.26L61.57 0.26L61.89-1.73L61.89-1.73Q62.78-7.30 62.78-16.26L62.78-16.26L62.78-16.26Q62.78-25.22 62.14-28.42L62.14-28.42L62.14-28.42Q62.14-29.18 63.49-29.18L63.49-29.18L63.49-29.18Q66.94-29.18 68.10-26.82L68.10-26.82L68.10-26.82Q68.16-26.56 68.32-26.56L68.32-26.56L68.32-26.56Q68.48-26.56 69.18-27.14L69.18-27.14L69.18-27.14Q71.30-28.86 74.18-28.86L74.18-28.86L74.18-28.86Q75.97-28.86 77.76-28.16L77.76-28.16L77.76-28.16Q81.41-26.69 81.41-22.02L81.41-22.02ZM90.50-36.61L90.50-36.61L90.11-13.12L90.11-13.12Q90.11-2.11 90.82 0.06L90.82 0.06L90.82 0.06Q91.01 0.45 91.01 0.83L91.01 0.83L91.01 0.83Q91.01 1.60 89.15 1.60L89.15 1.60L89.15 1.60Q87.30 1.60 85.02 0.67L85.02 0.67L85.02 0.67Q82.75-0.26 82.75-1.73L82.75-1.73L82.75-1.73Q84.03-10.69 84.03-25.66L84.03-25.66L83.78-35.46L83.78-35.46Q83.65-37.25 83.04-38.53L83.04-38.53L83.04-38.53Q82.43-39.81 81.86-40.19L81.86-40.19L81.34-40.51L81.34-40.51Q80.90-40.77 80.90-41.09L80.90-41.09L80.90-41.09Q80.90-41.98 83.68-43.30L83.68-43.30L83.68-43.30Q86.46-44.61 89.09-44.61L89.09-44.61L89.09-44.61Q90.11-44.61 90.24-43.90L90.24-43.90L90.24-43.90Q90.50-42.24 90.50-36.61ZM101.44-34.24L101.44-34.24L99.90-34.30L99.90-34.30Q98.18-34.30 97.66-33.47L97.66-33.47L97.66-33.47Q97.54-33.28 97.34-33.28L97.34-33.28L97.34-33.28Q96.51-33.28 96.51-36.13L96.51-36.13L96.51-36.13Q96.51-38.98 97.38-39.74L97.38-39.74L97.38-39.74Q98.24-40.51 100.38-40.51L100.38-40.51L100.38-40.51Q102.53-40.51 103.30-39.78L103.30-39.78L103.30-39.78Q104.06-39.04 104.06-37.31L104.06-37.31L104.06-37.31Q104.06-35.58 103.49-34.91L103.49-34.91L103.49-34.91Q102.91-34.24 101.44-34.24ZM96.32-1.92L96.32-1.92L97.02-16.83L97.02-16.83Q97.02-22.14 95.81-24.06L95.81-24.06L95.81-24.06Q95.42-24.70 94.91-25.02L94.91-25.02L94.91-25.02Q94.53-25.15 94.53-25.54L94.53-25.54L94.53-25.54Q94.53-26.69 97.79-27.78L97.79-27.78L97.79-27.78Q101.06-28.86 102.56-28.86L102.56-28.86L102.56-28.86Q104.06-28.86 104.13-28.10L104.13-28.10L104.13-28.10Q104.13-26.82 103.78-20.83L103.78-20.83L103.78-20.83Q103.42-14.85 103.42-8.26L103.42-8.26L103.42-8.26Q103.42-1.66 104.19-0.06L104.19-0.06L104.19-0.06Q104.38 0.26 104.38 0.58L104.38 0.58L104.38 0.58Q104.38 1.41 101.95 1.41L101.95 1.41L101.95 1.41Q99.52 1.41 96.96 0.13L96.96 0.13L96.96 0.13Q96.32-0.19 96.32-1.92ZM129.22-7.36L129.22-7.36L129.22-7.36Q129.22-3.71 126.30-1.31L126.30-1.31L126.30-1.31Q123.39 1.09 119.36 1.09L119.36 1.09L119.36 1.09Q113.47 1.09 110.72-2.46L110.72-2.46L110.72-2.46Q107.97-6.02 107.97-12.10L107.97-12.10L107.97-12.10Q107.97-18.56 110.85-23.55L110.85-23.55L110.85-23.55Q112.26-26.11 114.88-27.58L114.88-27.58L114.88-27.58Q117.50-29.06 121.02-29.06L121.02-29.06L121.02-29.06Q126.34-29.06 128.51-25.47L128.51-25.47L128.51-25.47Q129.41-24 129.41-22.02L129.41-22.02L129.41-22.02Q129.41-18.94 126.85-17.41L126.85-17.41L126.85-17.41Q125.82-16.83 124.96-16.83L124.96-16.83L124.96-16.83Q124.10-16.83 123.55-16.93L123.55-16.93L123.55-16.93Q123.01-17.02 122.11-17.79L122.11-17.79L122.11-17.79Q121.22-18.56 121.22-19.90L121.22-19.90L121.22-19.90Q121.28-20.61 122.30-21.06L122.30-21.06L122.30-21.06Q123.26-21.63 123.26-23.10L123.26-23.10L123.26-23.10Q123.26-25.60 120.19-25.60L120.19-25.60L120.19-25.60Q119.42-25.60 118.37-24.93L118.37-24.93L118.37-24.93Q117.31-24.26 116.61-23.20L116.61-23.20L116.61-23.20Q115.90-22.14 115.30-19.87L115.30-19.87L115.30-19.87Q114.69-17.60 114.69-15.52L114.69-15.52L114.69-15.52Q114.69-13.44 114.85-12.38L114.85-12.38L114.85-12.38Q115.01-11.33 115.55-9.50L115.55-9.50L115.55-9.50Q116.10-7.68 117.60-6.53L117.60-6.53L117.60-6.53Q119.10-5.38 121.34-5.38L121.34-5.38L121.34-5.38Q124.03-5.38 126.08-7.62L126.08-7.62L126.08-7.62Q126.91-8.51 127.42-9.79L127.42-9.79L127.42-9.79Q127.68-10.30 128.06-10.30L128.06-10.30L128.06-10.30Q128.64-10.30 128.93-9.25L128.93-9.25L128.93-9.25Q129.22-8.19 129.22-7.36ZM166.46-12.74L166.34-18.82L166.34-18.82Q166.34-20.29 164.54-20.42L164.54-20.42L160-20.42L160-20.42Q159.49-20.42 159.49-20.74L159.49-20.74L159.49-20.74Q159.87-22.59 160.83-23.71L160.83-23.71L160.83-23.71Q161.79-24.83 162.43-24.96L162.43-24.96L162.43-24.96Q164.22-25.22 168.32-25.22L168.32-25.22L168.32-25.22Q172.42-25.22 173.44-25.18L173.44-25.18L173.44-25.18Q174.46-25.15 174.72-24.96L174.72-24.96L174.72-24.96Q174.98-24.64 174.98-24.22L174.98-24.22L174.98-24.22Q174.98-23.81 174.75-18.91L174.75-18.91L174.75-18.91Q174.53-14.02 174.53-10.14L174.53-10.14L174.53-10.14Q174.53-6.27 174.78-5.28L174.78-5.28L174.78-5.28Q175.04-4.29 175.04-4.03L175.04-4.03L175.04-4.03Q175.04-3.01 173.25-1.82L173.25-1.82L173.25-1.82Q171.46-0.64 167.84 0.26L167.84 0.26L167.84 0.26Q164.22 1.15 159.87 1.15L159.87 1.15L159.87 1.15Q154.05 1.15 149.76-2.88L149.76-2.88L149.76-2.88Q146.43-6.08 145.18-9.86L145.18-9.86L145.18-9.86Q143.94-13.63 143.94-20.48L143.94-20.48L143.94-20.48Q143.94-45.89 162.56-45.89L162.56-45.89L162.56-45.89Q165.70-45.89 168.19-45.22L168.19-45.22L168.19-45.22Q170.69-44.54 172.58-42.59L172.58-42.59L172.58-42.59Q174.46-40.64 174.46-37.57L174.46-37.57L174.46-37.57Q174.46-35.97 173.82-34.30L173.82-34.30L173.82-34.30Q172.67-30.91 168.70-30.91L168.70-30.91L168.70-30.91Q166.53-30.91 165.41-32.03L165.41-32.03L165.41-32.03Q164.29-33.15 164.29-35.14L164.29-35.14L164.29-35.14Q164.29-35.90 165.12-36.10L165.12-36.10L165.12-36.10Q166.34-36.80 166.34-38.50L166.34-38.50L166.34-38.50Q166.34-40.19 165.06-41.12L165.06-41.12L165.06-41.12Q163.78-42.05 162.37-42.05L162.37-42.05L162.37-42.05Q159.30-42.05 157.18-39.84L157.18-39.84L157.18-39.84Q155.07-37.63 154.11-34.05L154.11-34.05L154.11-34.05Q152.51-27.65 152.51-20.99L152.51-20.99L152.51-20.99Q152.51-10.11 157.82-6.53L157.82-6.53L157.82-6.53Q159.81-5.12 161.98-5.12L161.98-5.12L161.98-5.12Q166.02-5.12 166.27-6.59L166.27-6.59L166.27-6.59Q166.46-8.58 166.46-12.74L166.46-12.74ZM199.87-19.20L199.87-19.20L199.74-11.01L199.74-11.01Q199.74-2.50 201.60-0.77L201.60-0.77L201.60-0.77Q201.86-0.51 201.86-0.19L201.86-0.19L201.86-0.19Q201.86 0.77 197.73 0.77L197.73 0.77L197.73 0.77Q193.60 0.77 193.34-1.66L193.34-1.66L193.34-1.66Q193.28-2.24 193.28-4.03L193.28-4.03L193.54-14.27L193.54-14.27Q193.54-14.72 193.02-14.72L193.02-14.72L193.02-14.72Q189.95-14.72 187.26-12.99L187.26-12.99L187.26-12.99Q184.58-11.26 184.58-8.58L184.58-8.58L184.58-8.58Q184.58-7.17 185.34-6.21L185.34-6.21L185.34-6.21Q186.11-5.25 187.23-5.25L187.23-5.25L187.23-5.25Q188.35-5.25 189.09-5.70L189.09-5.70L189.09-5.70Q189.82-6.14 189.95-6.21L189.95-6.21L189.95-6.21Q191.04-6.08 191.04-3.94L191.04-3.94L191.04-3.94Q191.04-1.79 189.06-0.48L189.06-0.48L189.06-0.48Q187.07 0.83 184.90 0.83L184.90 0.83L184.90 0.83Q182.72 0.83 181.15 0.06L181.15 0.06L181.15 0.06Q179.58-0.70 178.88-1.66L178.88-1.66L178.88-1.66Q178.18-2.62 177.73-3.84L177.73-3.84L177.73-3.84Q177.28-5.31 177.28-6.40L177.28-6.40L177.28-6.40Q177.28-10.88 180.10-13.57L180.10-13.57L180.10-13.57Q182.91-16.26 187.33-17.41L187.33-17.41L187.33-17.41Q193.15-18.56 193.41-19.52L193.41-19.52L193.41-19.52Q193.60-20.22 193.60-21.89L193.60-21.89L193.60-21.89Q193.60-25.28 190.14-25.28L190.14-25.28L190.14-25.28Q188.67-25.28 187.52-24.35L187.52-24.35L187.52-24.35Q186.37-23.42 186.37-22.02L186.37-22.02L186.75-20.48L186.75-20.48Q186.62-19.39 184.45-19.20L184.45-19.20L183.74-19.14L183.74-19.14Q181.82-19.14 180.70-20.10L180.70-20.10L180.70-20.10Q179.58-21.06 179.58-22.66L179.58-22.66L179.58-22.66Q179.58-23.68 180.26-24.93L180.26-24.93L180.26-24.93Q180.93-26.18 181.95-26.94L181.95-26.94L181.95-26.94Q182.98-27.71 185.12-28.32L185.12-28.32L185.12-28.32Q187.26-28.93 189.25-28.93L189.25-28.93L189.25-28.93Q191.23-28.93 192.32-28.80L192.32-28.80L192.32-28.80Q193.41-28.67 195.30-28.19L195.30-28.19L195.30-28.19Q197.18-27.71 198.43-26.37L198.43-26.37L198.43-26.37Q199.68-25.02 199.78-23.52L199.78-23.52L199.78-23.52Q199.87-22.02 199.87-19.20ZM223.62-22.02L223.30-17.15L223.55-14.91L223.55-14.91Q223.55-13.70 221.25-13.70L221.25-13.70L221.25-13.70Q216.58-13.70 216.58-17.22L216.58-17.22L216.58-17.22Q216.58-18.05 217.02-19.52L217.02-19.52L217.02-19.52Q217.47-20.99 217.47-22.08L217.47-22.08L217.47-22.08Q217.47-23.17 216.83-23.97L216.83-23.97L216.83-23.97Q216.19-24.77 214.98-24.77L214.98-24.77L214.98-24.77Q213.76-24.77 212.90-23.90L212.90-23.90L212.90-23.90Q212.03-23.04 211.84-22.14L211.84-22.14L211.58-21.25L211.58-21.25Q211.20-19.26 211.20-14.62L211.20-14.62L211.20-14.62Q211.20-9.98 211.33-7.33L211.33-7.33L211.33-7.33Q211.46-4.67 211.58-3.68L211.58-3.68L211.58-3.68Q211.71-2.69 211.71-2.50L211.71-2.50L211.71-2.50Q211.71-0.90 209.73 0.10L209.73 0.10L209.73 0.10Q207.74 1.09 205.76 1.09L205.76 1.09L205.76 1.09Q203.78 1.09 203.78 0.26L203.78 0.26L204.10-1.73L204.10-1.73Q204.99-7.30 204.99-16.26L204.99-16.26L204.99-16.26Q204.99-25.22 204.35-28.42L204.35-28.42L204.35-28.42Q204.35-29.18 205.70-29.18L205.70-29.18L205.70-29.18Q209.15-29.18 210.30-26.82L210.30-26.82L210.30-26.82Q210.37-26.56 210.53-26.56L210.53-26.56L210.53-26.56Q210.69-26.56 211.39-27.14L211.39-27.14L211.39-27.14Q213.50-28.86 216.38-28.86L216.38-28.86L216.38-28.86Q218.18-28.86 219.97-28.16L219.97-28.16L219.97-28.16Q223.62-26.69 223.62-22.02L223.62-22.02ZM232.70-36.61L232.70-36.61L232.32-13.12L232.32-13.12Q232.32-2.11 233.02 0.06L233.02 0.06L233.02 0.06Q233.22 0.45 233.22 0.83L233.22 0.83L233.22 0.83Q233.22 1.60 231.36 1.60L231.36 1.60L231.36 1.60Q229.50 1.60 227.23 0.67L227.23 0.67L227.23 0.67Q224.96-0.26 224.96-1.73L224.96-1.73L224.96-1.73Q226.24-10.69 226.24-25.66L226.24-25.66L225.98-35.46L225.98-35.46Q225.86-37.25 225.25-38.53L225.25-38.53L225.25-38.53Q224.64-39.81 224.06-40.19L224.06-40.19L223.55-40.51L223.55-40.51Q223.10-40.77 223.10-41.09L223.10-41.09L223.10-41.09Q223.10-41.98 225.89-43.30L225.89-43.30L225.89-43.30Q228.67-44.61 231.30-44.61L231.30-44.61L231.30-44.61Q232.32-44.61 232.45-43.90L232.45-43.90L232.45-43.90Q232.70-42.24 232.70-36.61ZM243.65-34.24L243.65-34.24L242.11-34.30L242.11-34.30Q240.38-34.30 239.87-33.47L239.87-33.47L239.87-33.47Q239.74-33.28 239.55-33.28L239.55-33.28L239.55-33.28Q238.72-33.28 238.72-36.13L238.72-36.13L238.72-36.13Q238.72-38.98 239.58-39.74L239.58-39.74L239.58-39.74Q240.45-40.51 242.59-40.51L242.59-40.51L242.59-40.51Q244.74-40.51 245.50-39.78L245.50-39.78L245.50-39.78Q246.27-39.04 246.27-37.31L246.27-37.31L246.27-37.31Q246.27-35.58 245.70-34.91L245.70-34.91L245.70-34.91Q245.12-34.24 243.65-34.24ZM238.53-1.92L238.53-1.92L239.23-16.83L239.23-16.83Q239.23-22.14 238.02-24.06L238.02-24.06L238.02-24.06Q237.63-24.70 237.12-25.02L237.12-25.02L237.12-25.02Q236.74-25.15 236.74-25.54L236.74-25.54L236.74-25.54Q236.74-26.69 240-27.78L240-27.78L240-27.78Q243.26-28.86 244.77-28.86L244.77-28.86L244.77-28.86Q246.27-28.86 246.34-28.10L246.34-28.10L246.34-28.10Q246.34-26.82 245.98-20.83L245.98-20.83L245.98-20.83Q245.63-14.85 245.63-8.26L245.63-8.26L245.63-8.26Q245.63-1.66 246.40-0.06L246.40-0.06L246.40-0.06Q246.59 0.26 246.59 0.58L246.59 0.58L246.59 0.58Q246.59 1.41 244.16 1.41L244.16 1.41L244.16 1.41Q241.73 1.41 239.17 0.13L239.17 0.13L239.17 0.13Q238.53-0.19 238.53-1.92ZM271.42-7.36L271.42-7.36L271.42-7.36Q271.42-3.71 268.51-1.31L268.51-1.31L268.51-1.31Q265.60 1.09 261.57 1.09L261.57 1.09L261.57 1.09Q255.68 1.09 252.93-2.46L252.93-2.46L252.93-2.46Q250.18-6.02 250.18-12.10L250.18-12.10L250.18-12.10Q250.18-18.56 253.06-23.55L253.06-23.55L253.06-23.55Q254.46-26.11 257.09-27.58L257.09-27.58L257.09-27.58Q259.71-29.06 263.23-29.06L263.23-29.06L263.23-29.06Q268.54-29.06 270.72-25.47L270.72-25.47L270.72-25.47Q271.62-24 271.62-22.02L271.62-22.02L271.62-22.02Q271.62-18.94 269.06-17.41L269.06-17.41L269.06-17.41Q268.03-16.83 267.17-16.83L267.17-16.83L267.17-16.83Q266.30-16.83 265.76-16.93L265.76-16.93L265.76-16.93Q265.22-17.02 264.32-17.79L264.32-17.79L264.32-17.79Q263.42-18.56 263.42-19.90L263.42-19.90L263.42-19.90Q263.49-20.61 264.51-21.06L264.51-21.06L264.51-21.06Q265.47-21.63 265.47-23.10L265.47-23.10L265.47-23.10Q265.47-25.60 262.40-25.60L262.40-25.60L262.40-25.60Q261.63-25.60 260.58-24.93L260.58-24.93L260.58-24.93Q259.52-24.26 258.82-23.20L258.82-23.20L258.82-23.20Q258.11-22.14 257.50-19.87L257.50-19.87L257.50-19.87Q256.90-17.60 256.90-15.52L256.90-15.52L256.90-15.52Q256.90-13.44 257.06-12.38L257.06-12.38L257.06-12.38Q257.22-11.33 257.76-9.50L257.76-9.50L257.76-9.50Q258.30-7.68 259.81-6.53L259.81-6.53L259.81-6.53Q261.31-5.38 263.55-5.38L263.55-5.38L263.55-5.38Q266.24-5.38 268.29-7.62L268.29-7.62L268.29-7.62Q269.12-8.51 269.63-9.79L269.63-9.79L269.63-9.79Q269.89-10.30 270.27-10.30L270.27-10.30L270.27-10.30Q270.85-10.30 271.14-9.25L271.14-9.25L271.14-9.25Q271.42-8.19 271.42-7.36Z" fill="#eb6c6c"></path></g></g><style>text {
  font-size: 64px;
  font-family: Arial Black;
  dominant-baseline: central;
  text-anchor: middle;
}</style></svg>